<svg width="20" height="16" viewBox="0 0 20 16" fill="none" xmlns="http://www.w3.org/2000/svg">
<path fill-rule="evenodd" clip-rule="evenodd" d="M0.384766 0.830078C0.746766 0.327078 1.334 0 2 0H18C18.627 0 19.1838 0.292094 19.5488 0.746094C19.8198 1.08409 19.7283 1.58831 19.3613 1.82031L10.6172 7.33984C10.2392 7.57584 9.76081 7.57584 9.38281 7.33984L0.601562 1.86719C0.248563 1.64719 0.140766 1.16808 0.384766 0.830078ZM19.2676 4.16016C19.3471 4.10991 19.432 4.08686 19.5156 4.08594C19.7665 4.08317 20 4.28245 20 4.56445V14C20 15.105 19.105 16 18 16H2C0.895 16 0 15.105 0 14V4.62891C0 4.25391 0.412469 4.02466 0.730469 4.22266L9.38281 9.61328C9.76081 9.84928 10.2392 9.85023 10.6172 9.61523L19.2676 4.16016Z" fill="#235049"/>
</svg>
