<svg width="55" height="56" viewBox="0 0 55 56" fill="none" xmlns="http://www.w3.org/2000/svg">
<path fill-rule="evenodd" clip-rule="evenodd" d="M9.47259 10.1341H45.6312C48.1171 10.1341 50.151 12.2038 50.151 14.7334V42.3295C50.151 44.8592 48.1171 46.9289 45.6312 46.9289H9.47259C6.98668 46.9289 4.95276 44.8592 4.95276 42.3295V14.7334C4.95276 12.2038 6.98668 10.1341 9.47259 10.1341ZM29.9474 29.3134L44.7272 19.9077C45.2922 19.5397 45.6312 18.9188 45.6312 18.2519C45.6312 16.7111 43.9815 15.7913 42.6933 16.5962L27.5519 26.2318L12.4105 16.5962C11.1223 15.7913 9.47259 16.7111 9.47259 18.2519C9.47259 18.9188 9.81157 19.5397 10.3766 19.9077L25.1564 29.3134C26.6253 30.2562 28.4785 30.2562 29.9474 29.3134Z" fill="white"/>
</svg>
