<svg width="623" height="607" viewBox="0 0 623 607" fill="none" xmlns="http://www.w3.org/2000/svg">
<path fill-rule="evenodd" clip-rule="evenodd" d="M320.314 1.84743C322.411 0.696689 324.951 0.69669 327.048 1.84743L366.524 23.5067C368.764 24.7359 370.157 27.0883 370.157 29.6437V72.3562C370.157 74.9116 368.764 77.264 366.524 78.4932L327.048 100.152C324.951 101.303 322.411 101.303 320.314 100.152L280.838 78.4932C278.598 77.264 277.205 74.9116 277.205 72.3562V29.6437C277.205 27.0883 278.598 24.7359 280.838 23.5067L320.314 1.84743ZM190.314 1.84743C192.411 0.696691 194.951 0.69669 197.048 1.84743L266.597 40.0067C268.837 41.2359 270.229 43.5883 270.229 46.1437V121.856C270.229 124.412 268.837 126.764 266.597 127.993L197.048 166.152C194.951 167.303 192.411 167.303 190.314 166.152L120.766 127.993C118.525 126.764 117.133 124.412 117.133 121.856V46.1437C117.133 43.5883 118.525 41.2359 120.766 40.0067L190.314 1.84743ZM320.133 110.847C322.23 109.697 324.77 109.697 326.867 110.847L450.637 178.757C452.877 179.986 454.27 182.338 454.27 184.894V320.106C454.27 322.662 452.877 325.014 450.637 326.243L326.867 394.152C324.77 395.303 322.23 395.303 320.133 394.152L196.363 326.243C194.123 325.014 192.73 322.662 192.73 320.106V184.894C192.73 182.338 194.123 179.986 196.363 178.757L320.133 110.847ZM457.048 1.84743C454.951 0.69669 452.411 0.696691 450.314 1.84743L380.766 40.0067C378.525 41.2359 377.133 43.5883 377.133 46.1437V121.856C377.133 124.412 378.525 126.764 380.766 127.993L450.314 166.152C452.411 167.303 454.951 167.303 457.048 166.152L526.597 127.993C528.837 126.764 530.229 124.412 530.229 121.856V46.1437C530.229 43.5883 528.837 41.2359 526.597 40.0067L457.048 1.84743ZM108.324 139.847C106.226 138.697 103.687 138.697 101.589 139.847L32.041 178.007C29.8007 179.236 28.4082 181.588 28.4082 184.144V259.856C28.4082 262.412 29.8007 264.764 32.041 265.993L101.589 304.152C103.687 305.303 106.226 305.303 108.324 304.152L177.872 265.993C180.112 264.764 181.505 262.412 181.505 259.856V184.144C181.505 181.588 180.112 179.236 177.872 178.007L108.324 139.847ZM127.589 307.847C129.687 306.697 132.226 306.697 134.324 307.847L258.093 375.757C260.334 376.986 261.726 379.338 261.726 381.894V517.106C261.726 519.662 260.334 522.014 258.093 523.243L134.324 591.152C132.226 592.303 129.687 592.303 127.589 591.152L3.8194 523.243C1.57907 522.014 0.186584 519.662 0.186584 517.106V381.894C0.186584 379.338 1.57907 376.986 3.8194 375.757L127.589 307.847ZM380.324 382.847C378.226 381.697 375.687 381.697 373.589 382.847L277.614 435.507C275.373 436.736 273.981 439.088 273.981 441.644V546.356C273.981 548.912 275.373 551.264 277.614 552.493L373.589 605.152C375.687 606.303 378.226 606.303 380.324 605.152L476.299 552.493C478.539 551.264 479.932 548.912 479.932 546.356V441.644C479.932 439.088 478.539 436.736 476.299 435.507L380.324 382.847ZM510.589 307.847C512.687 306.697 515.226 306.697 517.324 307.847L569.102 336.257C571.342 337.486 572.734 339.838 572.734 342.394V398.606C572.734 401.162 571.342 403.514 569.102 404.743L517.324 433.152C515.226 434.303 512.687 434.303 510.589 433.152L458.811 404.743C456.571 403.514 455.178 401.162 455.178 398.606V342.394C455.178 339.838 456.571 337.486 458.811 336.257L510.589 307.847ZM547.947 135.847C545.85 134.697 543.31 134.697 541.213 135.847L469.842 175.007C467.602 176.236 466.209 178.588 466.209 181.144V258.856C466.209 261.412 467.602 263.764 469.842 264.993L541.213 304.152C543.31 305.303 545.85 305.303 547.947 304.152L619.318 264.993C621.558 263.764 622.951 261.412 622.951 258.856V181.144C622.951 178.588 621.558 176.236 619.318 175.007L547.947 135.847Z" fill="#D8D8D8"/>
</svg>
